<svg t="1640070969931" class="icon" viewBox="0 0 1024 1024" version="1.1" xmlns="http://www.w3.org/2000/svg" p-id="8394" width="128" height="128"><path d="M444.8 445.184H377.6V66.752C377.6 29.888 407.68 0 444.8 0h134.4c37.12 0 67.136 29.888 67.136 66.752v378.432h-67.2v-349.44a29.056 29.056 0 0 0-29.056-28.992h-76.16a28.992 28.992 0 0 0-29.12 28.992v349.44z m134.4 0h313.408c37.12 0 67.2 29.952 67.2 66.816v155.84H64.192V512c0-36.864 30.08-66.816 67.2-66.816H444.8V512H160.448a29.056 29.056 0 0 0-29.056 28.928v60.16h761.216v-60.16A28.992 28.992 0 0 0 863.552 512H579.2V445.184z m62.272 512h60.8V823.68h-60.8v133.568h-465.28a44.672 44.672 0 0 1-44.8-44.544v-155.84h761.216v155.84a44.672 44.672 0 0 1-44.8 44.544h-15.744V823.68h-62.592v133.568h-256 128z m-577.28 0c0 36.928 30.08 66.816 67.2 66.816h761.216c37.12 0 67.2-29.888 67.2-66.752v-267.136H64.192v267.136z" p-id="8395"></path></svg>