<svg class="icon" width="200" height="200" viewBox="0 0 1024 1024" xmlns="http://www.w3.org/2000/svg"><path d="M283.927 344.436h69.818v479.419h-69.818zm195.491 0h69.818v479.419h-69.818zm195.491 0h69.818v479.419H674.91z"/><path d="M1024 167.564H712.145V41.89c0-4.655-4.654-13.964-4.654-18.618-4.655-4.655-9.31-9.31-18.618-9.31H335.127c-13.963 0-23.272 9.31-23.272 23.273V162.91H0v69.818h97.745v735.418c0 18.619 13.964 32.582 32.582 32.582h758.691c18.618 0 32.582-13.963 32.582-32.582V232.727h97.745v-65.163H1024zm-642.327 0V83.782h265.309v83.782h-265.31zm474.763 65.163v702.837H167.564V232.727h688.872z"/></svg>