<svg t="1639545418700" class="icon" viewBox="0 0 1024 1024" version="1.1" xmlns="http://www.w3.org/2000/svg" p-id="59372" width="1000" height="1000"><path d="M912.654294 491.367959l-0.333969 366.447757c0 68.337706-87.865178 67.181157-119.012711 67.181157h-572.803249c-84.950416 0-108.82469-98.466437-108.82469-169.501888V191.598457c0-64.444426 39.175797-79.918782 109.157361-79.918782h358.958781c49.469076 0 89.462254-1.988223 89.462254-53.876954C669.258071 5.91269 639.575066 0.324873 585.644832 0.324873H161.142254C78.078701 0.324873 0.324873 38.753462 0.324873 139.270497V830.882437c0 135.21998 82.387817 192.79399 160.817381 192.793989h695.90936c88.427858 0 160.838173-56.764426 160.838173-165.859411V493.976041c0-83.511878 2.248122-131.426761-54.264203-131.426762-57.868995 0-50.971289 39.127716-50.97129 128.81868zM383.964914 641.99602l34.420954 39.990579-58.770843 23.980832 24.349889-63.971411z m406.286294-427.668142l49.783553 50.324142L470.546193 639.870051l-43.41734-45.577097 363.123655-379.965076z m98.349482 5.021239l-55.199837-53.659939 34.066193-38.385706c7.751472-8.043858 21.480609-9.208203 30.353543 0 3.894579 2.905665 8.771574 6.779452 14.628386 11.620061 8.785868 7.261563 10.284183 7.806051 17.528852 15.310619 7.24467 7.505868 4.739249 19.258477-3.81401 27.822132l-37.563127 37.292833zM317.632325 570.145787l-51.472894 195.157766c-3.012223 11.377056 0.07797 23.659858 8.203696 32.276792 6.080325 6.09332 14.108589 9.504487 22.647553 9.504487 2.834193 0 5.668386-0.356061 8.462295-1.143553l187.440081-52.842558c0.294985 0 0.432731 0.296284 0.630254 0.296284 2.183147 0 4.270132-0.827777 5.882802-2.523614l501.167431-518.142701c14.915574-15.398985 23.081584-36.416975 23.081584-59.249055 0-25.849503-10.625949-51.758782-29.220386-70.922396l-47.322315-49.016853c-18.574944-19.242883-43.642152-30.226193-68.613198-30.226193-22.096569 0-42.382944 8.438904-57.376487 23.819695l-501.149238 518.29734c-0.512 0.493807-0.335269 1.20333-0.729016 1.775107-0.647147 0.849868-1.335878 1.794599-1.632162 2.939452z"  p-id="59373"></path></svg>