<svg t="1642572515666" class="icon" viewBox="0 0 1024 1024" version="1.1" xmlns="http://www.w3.org/2000/svg" p-id="7447" width="48" height="48"><path d="M511.3 450.1m-430.5 0a430.5 430.5 0 1 0 861 0 430.5 430.5 0 1 0-861 0Z" fill="#F2CF3D" p-id="7448"></path><path d="M511.3 891.6c-59.6 0-117.4-11.7-171.8-34.7-52.6-22.2-99.8-54.1-140.3-94.6-40.5-40.5-72.4-87.8-94.6-140.3-23-54.4-34.7-112.3-34.7-171.8 0-59.6 11.7-117.4 34.7-171.8 22.2-52.6 54.1-99.8 94.6-140.3 40.5-40.5 87.8-72.4 140.3-94.6 54.4-23 112.3-34.7 171.8-34.7s117.4 11.7 171.8 34.7c52.6 22.2 99.8 54.1 140.3 94.6 40.5 40.5 72.4 87.8 94.6 140.3 23 54.4 34.7 112.3 34.7 171.8 0 59.6-11.7 117.4-34.7 171.8-22.2 52.6-54.1 99.8-94.6 140.3s-87.8 72.4-140.3 94.6c-54.4 23-112.2 34.7-171.8 34.7z m0-861c-56.6 0-111.6 11.1-163.3 33-49.9 21.1-94.8 51.4-133.3 89.9-38.5 38.5-68.8 83.4-89.9 133.3-21.9 51.7-33 106.6-33 163.3s11.1 111.6 33 163.3c21.1 50 51.4 94.8 89.9 133.3 38.5 38.5 83.4 68.8 133.3 89.9 51.7 21.9 106.6 33 163.3 33 56.6 0 111.6-11.1 163.3-33 50-21.1 94.8-51.4 133.3-89.9s68.8-83.4 89.9-133.3c21.9-51.7 33-106.6 33-163.3s-11.1-111.6-33-163.3c-21.1-49.9-51.4-94.8-89.9-133.3-38.5-38.5-83.4-68.8-133.3-89.9-51.7-21.9-106.6-33-163.3-33z" fill="#231815" p-id="7449"></path><path d="M511.3 415.6m-396 0a396 396 0 1 0 792 0 396 396 0 1 0-792 0Z" fill="#FFE20D" p-id="7450"></path><path d="M511.3 891.6c-59.6 0-117.4-11.7-171.8-34.7-52.6-22.2-99.8-54.1-140.3-94.6-40.5-40.5-72.4-87.8-94.6-140.3-23-54.4-34.7-112.3-34.7-171.8 0-59.6 11.7-117.4 34.7-171.8 22.2-52.6 54.1-99.8 94.6-140.3 40.5-40.5 87.8-72.4 140.3-94.6 54.4-23 112.3-34.7 171.8-34.7s117.4 11.7 171.8 34.7c52.6 22.2 99.8 54.1 140.3 94.6 40.5 40.5 72.4 87.8 94.6 140.3 23 54.4 34.7 112.3 34.7 171.8 0 59.6-11.7 117.4-34.7 171.8-22.2 52.6-54.1 99.8-94.6 140.3s-87.8 72.4-140.3 94.6c-54.4 23-112.2 34.7-171.8 34.7z m0-861c-56.6 0-111.6 11.1-163.3 33-49.9 21.1-94.8 51.4-133.3 89.9-38.5 38.5-68.8 83.4-89.9 133.3-21.9 51.7-33 106.6-33 163.3s11.1 111.6 33 163.3c21.1 50 51.4 94.8 89.9 133.3 38.5 38.5 83.4 68.8 133.3 89.9 51.7 21.9 106.6 33 163.3 33 56.6 0 111.6-11.1 163.3-33 50-21.1 94.8-51.4 133.3-89.9s68.8-83.4 89.9-133.3c21.9-51.7 33-106.6 33-163.3s-11.1-111.6-33-163.3c-21.1-49.9-51.4-94.8-89.9-133.3-38.5-38.5-83.4-68.8-133.3-89.9-51.7-21.9-106.6-33-163.3-33z" fill="#231815" p-id="7451"></path><path d="M374.6 123.2a136.7 44.2 0 1 0 273.4 0 136.7 44.2 0 1 0-273.4 0Z" fill="#FFF0B3" p-id="7452"></path><path d="M309 428.5m-35.6 0a35.6 35.6 0 1 0 71.2 0 35.6 35.6 0 1 0-71.2 0Z" fill="#231815" p-id="7453"></path><path d="M713.6 428.5m-35.6 0a35.6 35.6 0 1 0 71.2 0 35.6 35.6 0 1 0-71.2 0Z" fill="#231815" p-id="7454"></path><path d="M511.3 621.8c-69.6 0-134.8-8.3-190.9-22.7-20.2-5.2-39.4 12-35 31.7 22.2 100.6 114.9 176.1 225.9 176.1S715 731.4 737.2 630.8c4.3-19.7-14.8-36.9-35-31.7-56.1 14.4-121.3 22.7-190.9 22.7z" fill="#FFA6D7" p-id="7455"></path><path d="M511.3 817.9c-55.7 0-110.1-18.7-153.1-52.7-42.5-33.6-72.2-80.5-83.5-132-2.8-12.6 1.2-25.7 10.7-34.8 10-9.7 24.2-13.4 37.8-9.9 56.9 14.6 121.9 22.3 188.1 22.3s131.3-7.7 188.1-22.3c13.6-3.5 27.7 0.2 37.8 9.9 9.5 9.2 13.5 22.2 10.7 34.8-11.4 51.6-41 98.5-83.5 132-43 34-97.4 52.7-153.1 52.7zM313.1 609.2c-4.6 0-9 1.8-12.4 5-4 3.9-5.7 9.1-4.5 14.3 10.3 46.6 37.2 89.1 75.7 119.5 39.2 30.9 88.7 48 139.5 48s100.3-17 139.5-48c38.5-30.4 65.4-72.9 75.7-119.5 1.1-5.2-0.5-10.4-4.5-14.3-4.5-4.4-10.9-6-17-4.4-58.6 15.1-125.6 23-193.6 23s-135-8-193.6-23c-1.7-0.4-3.3-0.6-4.8-0.6z" fill="#231815" p-id="7456"></path><path d="M659.9 754.7c-40.2-32.6-92-52.2-148.6-52.2s-108.4 19.6-148.6 52.2c40.2 32.6 92 52.2 148.6 52.2s108.4-19.6 148.6-52.2z" fill="#FF66C1" p-id="7457"></path><path d="M511.3 817.9c-56.8 0-112-19.4-155.5-54.6-2.6-2.1-4.1-5.2-4.1-8.5s1.5-6.5 4.1-8.5c43.5-35.2 98.7-54.6 155.5-54.6s112 19.4 155.5 54.6c2.6 2.1 4.1 5.2 4.1 8.5s-1.5 6.5-4.1 8.5c-43.5 35.2-98.7 54.6-155.5 54.6zM381 754.7c37.6 26.7 83.4 41.2 130.4 41.2s92.7-14.5 130.4-41.2c-37.6-26.6-83.4-41.2-130.4-41.2-47 0.1-92.8 14.6-130.4 41.2z" fill="#231815" p-id="7458"></path><path d="M224.5 556.9a51 31.6 0 1 0 102 0 51 31.6 0 1 0-102 0Z" fill="#FFA178" p-id="7459"></path><path d="M696.2 556.9a51 31.6 0 1 0 102 0 51 31.6 0 1 0-102 0Z" fill="#FFA178" p-id="7460"></path><path d="M175.2 976.5a336.1 34.4 0 1 0 672.2 0 336.1 34.4 0 1 0-672.2 0Z" fill="#E5E5E5" p-id="7461"></path></svg>