<svg class="icon" width="200" height="200" viewBox="0 0 1024 1024" xmlns="http://www.w3.org/2000/svg"><path d="M848.05 813.04c-13.35 11.58-33.56 10.14-45.14-3.22l-282.1-331.38c-4-4.61-11.17-4.6-15.14.04L221.19 809.87c-11.51 13.41-31.71 14.95-45.12 3.44-13.41-11.51-14.95-31.71-3.44-45.12L497.88 389.3c7.96-9.27 22.29-9.3 30.29-.07l323.1 378.68c11.57 13.34 10.13 33.55-3.22 45.13z"/><path d="M848.05 593.69c-13.35 11.58-33.56 10.14-45.14-3.22l-282.1-331.38c-4-4.61-11.17-4.6-15.14.04L221.19 590.52c-11.51 13.41-31.71 14.95-45.12 3.44-13.41-11.51-14.95-31.71-3.44-45.12l325.25-378.88c7.96-9.27 22.29-9.3 30.29-.07l323.1 378.68c11.57 13.33 10.13 33.54-3.22 45.12z"/></svg>