<svg class="icon" width="200" height="200" viewBox="0 0 1024 1024" xmlns="http://www.w3.org/2000/svg"><path d="M175.95 210.96c13.35-11.58 33.56-10.14 45.14 3.22l282.1 331.38c4 4.61 11.17 4.6 15.14-.04l284.48-331.39c11.51-13.41 31.71-14.95 45.12-3.44 13.41 11.51 14.95 31.71 3.44 45.12L526.12 634.7c-7.96 9.27-22.29 9.3-30.29.07L172.73 256.1c-11.57-13.35-10.13-33.56 3.22-45.14z"/><path d="M175.95 430.31c13.35-11.58 33.56-10.14 45.14 3.22l282.1 331.38c4 4.61 11.17 4.6 15.14-.04l284.48-331.39c11.51-13.41 31.71-14.95 45.12-3.44 13.41 11.51 14.95 31.71 3.44 45.12L526.12 854.05c-7.96 9.27-22.29 9.3-30.29.07l-323.1-378.68c-11.57-13.34-10.13-33.55 3.22-45.13z"/></svg>