<svg t="1644475031881" class="icon" viewBox="0 0 1024 1024" version="1.1" xmlns="http://www.w3.org/2000/svg" p-id="1637" width="128" height="128"><path d="M241.20888853 102.4A113.77777813 113.77777813 0 0 0 352.71111147 193.42222187h318.57777706a113.77777813 113.77777813 0 0 0 111.50222294-91.02222187h93.25226666A136.53333333 136.53333333 0 0 1 1012.62222187 238.66026667v637.70168853A136.3968 136.3968 0 0 1 876.04337813 1012.62222187H147.91111147A136.53333333 136.53333333 0 0 1 11.37777813 876.3619552V238.66026667A136.3968 136.3968 0 0 1 147.95662187 102.4H241.20888853zM284.4444448 375.46666667a45.51111147 45.51111147 0 1 0 0 91.02222186h273.06666667a45.51111147 45.51111147 0 0 0 0-91.02222186H284.4444448z m0 182.0444448a45.51111147 45.51111147 0 0 0 0 91.02222186h455.1111104a45.51111147 45.51111147 0 0 0 0-91.02222186H284.4444448z m0 182.04444373a45.51111147 45.51111147 0 0 0 0 91.02222293h273.06666667a45.51111147 45.51111147 0 0 0 0-91.02222293H284.4444448zM352.71111147 11.37777813h318.57777706a68.26666667 68.26666667 0 0 1 0 136.53333334h-318.57777706a68.26666667 68.26666667 0 0 1 0-136.53333334z" p-id="1638"></path></svg>