<svg class="icon" width="200" height="196.17" viewBox="0 0 1044 1024" xmlns="http://www.w3.org/2000/svg"><path d="M1033.238 573.434c-4.33 4.211-9.937 6.305-15.544 6.305-5.836 0-11.661-2.269-16.035-6.786l-68.047-70.199v433.34c0 12.348-10.002 22.34-22.34 22.34h-761.8c-12.338 0-22.342-9.992-22.342-22.34v-433.34l-68.046 70.2c-8.575 8.857-22.744 9.075-31.58.48-8.87-8.575-9.088-22.734-.502-31.591L514.325 39.118c1.603-1.654 3.62-2.698 5.626-3.72.62-.317 1.092-.895 1.739-1.152 5.504-2.182 11.863-2.18 17.366.001.595.236 1.027.77 1.6 1.058 2.062 1.033 4.12 2.117 5.762 3.813l487.323 502.725c8.583 8.857 8.365 23.017-.503 31.591zM657.85 685.683H402.893v228.551H657.85V685.683z"/></svg>