<svg t="1642410244264" class="icon" viewBox="0 0 1024 1024" version="1.1" xmlns="http://www.w3.org/2000/svg" p-id="3037" width="50" height="50"><path d="M1020.377987 468.716066a84.323832 84.323832 0 0 0-53.615893-63.851873 150.6127 150.6127 0 0 0-48.741903-7.310985H660.175705c-11.210978 0-11.210978 0-9.748981-11.210978 5.361989-31.194938 9.748981-62.876875 16.084968-94.071812a237.859526 237.859526 0 0 0-4.87399-125.266751c-12.672975-37.043926-27.295946-73.112854-40.942919-109.669781a73.112854 73.112854 0 0 0-40.455919-45.32991 131.115739 131.115739 0 0 0-116.493768 3.412993 63.851873 63.851873 0 0 0-37.529925 61.413878c0 40.455919 0 80.911839 2.923994 121.367758a66.289868 66.289868 0 0 1-8.773982 37.043926c-31.194938 53.615893-53.615893 97.483806-86.272829 146.225709a349.966303 349.966303 0 0 1-32.169935 36.555927 93.096815 93.096815 0 0 0-35.58193 69.700861v453.299097a82.373836 82.373836 0 0 0 81.886837 82.861835h445.501113a240.78452 240.78452 0 0 0 75.549849-9.74898 116.005769 116.005769 0 0 0 83.347834-105.281791 133.065735 133.065735 0 0 0-6.335987-57.515885 12.672975 12.672975 0 0 1 2.436995-9.747981 129.165743 129.165743 0 0 0 28.757943-86.759827 141.839717 141.839717 0 0 0-7.798985-33.144934 13.647973 13.647973 0 0 1 0-14.622971 119.417762 119.417762 0 0 0 28.757943-78.961842 281.728439 281.728439 0 0 0-8.285984-41.917917v-10.235979a126.241749 126.241749 0 0 0 29.244942-61.414878V479.439045zM82.583855 438.983125h54.590892q82.373836 0 82.373836 82.373836v420.155163q0 82.373836-82.373836 82.373836h-54.589892q-82.374836 0-82.374835-82.373836V521.356961q0-82.373836 82.373835-82.373836z" p-id="3038"></path></svg>