<svg t="1644829187826" class="icon" viewBox="0 0 1024 1024" version="1.1" xmlns="http://www.w3.org/2000/svg" p-id="1528" width="128" height="128"><path d="M20.15179435 551.76970923c0-13.91379683 10.44094862-20.72506027 23.21206727-15.1012864l98.29279744 43.15293468c12.77111751 5.60136761 23.21206727 21.55406222 23.21206727 35.46785906v56.1705142h164.68020452l31.81576761-68.76238734 97.32936248 45.25904896-46.02083555 99.480287a53.75072256 53.75072256 0 0 1-48.77670855 31.07638728h-199.07260188v56.17051306c0 13.93620195-10.4185435 29.86649145-23.21206728 35.46785906l-98.24798606 43.1977472C30.59274411 918.92814734 20.15179435 912.16169529 20.15179435 898.22549333z m926.91429831 3.78652444l-67.10438343 143.43981966-96.00743879-44.6316965 163.11182222-98.80812316zM319.42165846 113.40668701L986.27566478 423.40877085c25.25096505 11.78527744 26.43845461 33.20490667 2.59903488 47.63403036l-299.04580949 181.17063111c-23.83941973 14.42912256-64.03483307 16.62485845-89.33060949 4.88439239l-439.75216128-204.42750976a50.70357845 50.70357845 0 0 1-24.55639495-67.21641017l115.79146923-247.58044444a50.95003933 50.95003933 0 0 1 67.44046478-24.46677333z" p-id="1529"></path></svg>