<svg t="1639642169255" class="icon" viewBox="0 0 1024 1024" version="1.1" xmlns="http://www.w3.org/2000/svg" p-id="5491" width="200" height="200"><path d="M511.414857 0a274.870857 274.870857 0 0 1 274.870857 274.870857v110.226286h100.571429a73.142857 73.142857 0 0 1 73.142857 73.142857V950.857143a73.142857 73.142857 0 0 1-73.142857 73.142857H137.142857a73.142857 73.142857 0 0 1-73.142857-73.142857V458.313143a73.142857 73.142857 0 0 1 73.142857-73.142857l99.401143-0.073143V274.870857A274.870857 274.870857 0 0 1 511.414857 0zM877.714286 467.382857H146.285714v474.331429h731.428572V467.456zM601.746286 548.571429l8.557714 5.485714a36.571429 36.571429 0 0 1 30.208-16.896h0.658286a36.571429 36.571429 0 0 1 36.571428 35.913143v69.193143a36.571429 36.571429 0 0 1-35.986285 36.571428h-69.193143a36.571429 36.571429 0 0 1-14.043429-70.363428l6.582857 3.510857a106.276571 106.276571 0 1 0 38.034286 146.651428l0.877714-1.462857a36.571429 36.571429 0 0 1 63.341715 36.571429A179.419429 179.419429 0 1 1 601.746286 548.571429zM511.414857 82.358857A192.585143 192.585143 0 0 0 318.902857 274.870857v109.421714h385.170286V274.870857a192.585143 192.585143 0 0 0-192.585143-192.585143z" p-id="5492"></path></svg>