<svg class="icon" viewBox="0 0 1024 1024" xmlns="http://www.w3.org/2000/svg" width="200" height="200"><path d="M792.703 534.453c-49.288 33.217-108.257 52.515-171.718 52.515-63.271 0-122.05-19.171-171.15-52.136C316.84 599.875 224.97 738.123 224.97 898.136c0 169.314 793.232 166.973 793.232 0-.063-160.392-92.123-298.83-225.499-363.683zM354.36 270.99C354.36 121.354 473.69 0 620.985 0 768.28 0 887.61 121.291 887.61 270.991c0 149.637-119.33 270.865-266.625 270.865-147.296 0-266.625-121.228-266.625-270.865zm-176.4 641.192c0 6.2.948 12.084 2.783 17.905C80.585 913.828 5.798 881.75 5.798 833.41c0-138.501 79.469-258.147 194.622-314.459 40.178 27.017 88.01 43.341 139.577 45.05-98.956 82.695-162.038 207.972-162.038 348.182zM310.005 270.99c0-68.776 21.64-132.427 58.4-184.31-6.454-.569-12.844-.822-19.298-.822-121.228 0-219.488 99.842-219.488 223.032s98.197 223.03 219.425 223.03c27.27 0 53.4-5.06 77.444-14.362-70.99-57.893-116.483-146.79-116.483-246.568zm0 0"/></svg>