<svg class="icon" viewBox="0 0 1024 1024" xmlns="http://www.w3.org/2000/svg" width="200" height="200"><path d="M936.622 171.14C755.907 158.87 587.534 47.305 531.362 6.311a33.973 33.973 0 0 0-39.433 0C435.189 47.306 264.972 158.87 87.024 170.643a33.05 33.05 0 0 0-30.852 32.767v270.788c0 427.458 383.415 541.078 455.615 549.802 78.017-7.092 455.545-129.01 456.041-549.306V203.906a33.05 33.05 0 0 0-31.206-32.767zM721.935 691.791a51.207 51.207 0 0 1-36.313 11.348H601.08a51.49 51.49 0 0 1-36.313-11.348 44.966 44.966 0 0 1-12.128-34.043v-78.797a44.611 44.611 0 0 1 12.2-34.043 51.704 51.704 0 0 1 36.525-11.348h27.59v-38.725h-234.83v38.725h28.725a49.647 49.647 0 0 1 36.242 11.348 44.966 44.966 0 0 1 12.27 34.043v78.797a44.682 44.682 0 0 1-12.27 34.043 50.923 50.923 0 0 1-36.242 11.348h-84.542a50.285 50.285 0 0 1-36.313-11.348 44.115 44.115 0 0 1-12.199-33.83v-78.797a44.611 44.611 0 0 1 12.2-34.044 50.64 50.64 0 0 1 36.312-11.347h27.59v-52.059a13.76 13.76 0 0 1 14.184-13.12h112.415V428.31h-27.59a50.71 50.71 0 0 1-36.525-11.348 44.895 44.895 0 0 1-12.2-33.973v-78.867a44.611 44.611 0 0 1 12.2-34.044 51.49 51.49 0 0 1 36.029-11.347h84.612a50.427 50.427 0 0 1 36.455 11.347 43.264 43.264 0 0 1 12.27 34.044v78.867a43.476 43.476 0 0 1-12.057 34.044 51.42 51.42 0 0 1-36.455 11.348h-28.37v40.284h122.06a13.76 13.76 0 0 1 14.185 13.121v52.059h28.37a50.214 50.214 0 0 1 36.313 11.347 42.554 42.554 0 0 1 11.986 33.831v78.726a44.611 44.611 0 0 1-11.844 34.043z"/></svg>