<svg class="icon" width="200" height="199.8" viewBox="0 0 1025 1024" xmlns="http://www.w3.org/2000/svg"><path d="M896.364 512.367c0-23.942-2.523-41.305-2.523-41.305-2.293-15.789 7.138-35.23 20.958-43.202l52.262-30.146c13.82-7.973 18.594-25.797 10.61-39.61l-99.128-171.501c-7.984-13.814-25.825-18.595-39.646-10.626l-52.195 30.094c-13.821 7.97-35.437 6.48-48.035-3.31 0 0-13.936-10.83-34.202-22.52-20.39-11.753-37.433-18.692-37.433-18.692-14.776-6.016-26.867-23.993-26.867-39.948V61.285c0-15.955-13.054-29.01-29.009-29.01H412.974c-15.955 0-29.01 13.055-29.01 29.01v60.317c0 15.954-12.089 33.93-26.866 39.948 0 0-17.042 6.938-37.371 18.63-20.327 11.751-34.264 22.581-34.264 22.581-12.598 9.79-34.21 11.276-48.03 3.3l-52.206-30.134c-13.817-7.976-31.652-3.198-39.632 10.618l-99.08 171.553c-7.98 13.815-3.203 31.645 10.615 39.62l52.207 30.135c13.818 7.976 23.247 27.42 20.954 43.208 0 0-2.523 17.364-2.523 41.305 0 24.004 2.523 41.37 2.523 41.37 2.293 15.789-7.14 35.227-20.96 43.196l-52.194 30.094c-13.821 7.969-18.598 25.793-10.616 39.607l99.134 171.558c7.983 13.814 25.82 18.59 39.638 10.616l52.207-30.134c13.818-7.975 35.416-6.47 47.995 3.344 0 0 12.781 9.973 32.422 21.475 20.829 12.19 39.19 19.677 39.19 19.677 14.774 6.026 26.861 24.008 26.861 39.964v60.316c0 15.955 13.054 29.01 29.01 29.01h198.18c15.955 0 29.01-13.055 29.01-29.01v-60.316c0-15.956 12.09-33.929 26.868-39.942 0 0 16.914-6.883 37.118-18.51 20.39-11.753 34.46-22.697 34.46-22.697 12.594-9.796 34.205-11.288 48.026-3.316l52.26 30.146c13.821 7.972 31.658 3.19 39.637-10.626l99.081-171.55c7.98-13.817 3.2-31.642-10.62-39.61L914.8 596.931c-13.822-7.969-23.254-27.407-20.96-43.197 0 0 2.523-17.364 2.523-41.368zm-384.3 160.03c-88.443 0-160.124-71.64-160.124-160.03s71.681-160.03 160.124-160.03c88.445 0 160.126 71.638 160.126 160.03s-71.681 160.03-160.126 160.03z"/></svg>