<svg class="icon" viewBox="0 0 1036 1024" xmlns="http://www.w3.org/2000/svg" width="200" height="200"><path d="M984.178 432.356h-45.511c-22.756 0-45.511-17.067-51.2-39.823l-28.445-68.266c-11.378-11.378-5.689-39.823 11.378-56.89l34.133-34.133c17.067-17.066 17.067-39.822 0-56.888l-56.889-56.89c-17.066-17.066-39.822-17.066-56.888 0L756.622 153.6c-17.066 17.067-45.51 22.756-62.578 11.378l-68.266-28.445c-22.756-5.689-39.822-28.444-39.822-51.2v-45.51C585.956 17.066 568.889 0 546.133 0h-73.955c-22.756 0-39.822 17.067-39.822 39.822v45.511c0 22.756-17.067 45.511-39.823 51.2l-62.577 28.445c-17.067 11.378-45.512 5.689-62.578-11.378l-34.134-34.133c-17.066-17.067-39.822-17.067-56.888 0l-56.89 56.889c-17.066 17.066-17.066 39.822 0 56.888l34.134 34.134c17.067 17.066 22.756 45.51 11.378 62.578l-28.445 68.266c-5.689 17.067-28.444 34.134-51.2 34.134h-45.51C17.066 432.356 0 449.422 0 472.178v79.644c0 22.756 17.067 39.822 39.822 39.822h45.511c22.756 0 45.511 17.067 51.2 39.823l28.445 68.266c11.378 11.378 5.689 39.823-11.378 56.89l-34.133 34.133c-17.067 17.066-17.067 39.822 0 56.888l56.889 56.89c17.066 17.066 39.822 17.066 56.888 0l34.134-34.134c17.066-17.067 45.51-22.756 62.578-11.378l68.266 28.445c22.756 5.689 39.822 28.444 39.822 51.2v45.51c0 22.756 17.067 39.823 39.823 39.823h79.644c22.756 0 39.822-17.067 39.822-39.822v-45.511c0-22.756 17.067-45.511 39.823-51.2l68.266-28.445c17.067-11.378 45.511-5.689 62.578 11.378l34.133 34.133c17.067 17.067 39.823 17.067 56.89 0l56.888-56.889c17.067-17.066 17.067-39.822 0-56.888l-34.133-34.134c-17.067-17.066-17.067-45.51-11.378-62.578l28.444-68.266c5.69-22.756 28.445-39.822 51.2-39.822h45.512c22.755 0 39.822-17.067 39.822-39.823v-73.955c-11.378-22.756-28.445-39.822-51.2-39.822zM711.11 512c0 108.089-91.022 199.111-199.111 199.111-108.089 0-199.111-85.333-199.111-199.111 0-108.089 85.333-199.111 199.111-199.111 108.089 0 199.111 91.022 199.111 199.111zm0 0"/></svg>