<svg t="1644474543447" class="icon" viewBox="0 0 1024 1024" version="1.1" xmlns="http://www.w3.org/2000/svg" p-id="4630" width="128" height="128"><path d="M1002.202138 791.322722L768.025007 557.145591c-46.195489-46.195489-115.188751-55.19461-170.783322-27.797285L384.062504 316.169124V191.981252L128.087501 0 0.1 127.987501l191.981252 255.975003h124.187872l213.179182 213.179181c-27.197344 55.594571-18.398203 124.587833 27.797285 170.783322l234.177131 234.177131c29.197149 29.197149 76.39254 29.197149 105.389708 0l105.389708-105.389708c28.997168-29.197149 28.997168-76.39254 0-105.389708zM663.435221 449.956059c56.594473 0 109.789278 21.997852 149.785373 61.993946l38.796211 38.796211c31.596914-13.798652 61.593985-32.996778 87.591446-58.994239 74.192755-74.192755 99.390294-178.58256 75.792599-273.373303-4.39957-17.998242-26.997364-24.197637-40.196075-10.998926l-148.78547 148.78547-135.78674-22.597793L668.034772 197.780685l148.78547-148.78547c13.198711-13.198711 6.799336-35.796504-11.398887-40.396055-94.790743-23.397715-199.180549 1.799824-273.173323 75.792599-56.994434 56.994434-83.791817 132.187091-82.391953 207.179767l164.183966 164.183967c16.198418-3.799629 32.996778-5.799434 49.395176-5.799434z m-207.779709 163.983986l-113.388927-113.388927L37.496348 805.521336c-49.995118 49.995118-49.995118 130.987208 0 180.982326s130.987208 49.995118 180.982326 0l247.175862-247.175862c-15.198516-39.796114-19.798067-83.191876-9.999024-125.387755zM128.087501 943.907822c-26.397422 0-47.995313-21.597891-47.995313-47.995313 0-26.597403 21.39791-47.995313 47.995313-47.995313s47.995313 21.39791 47.995313 47.995313c0 26.397422-21.39791 47.995313-47.995313 47.995313z" p-id="4631"></path></svg>