<svg class="icon" viewBox="0 0 1024 1024" xmlns="http://www.w3.org/2000/svg" width="200" height="200"><path d="M262.4 947.2H115.2C128 742.4 300.8 576 512 576c51.2 0 96 6.4 140.8 25.6l44.8-44.8h-6.4c-12.8-6.4-25.6-12.8-38.4-12.8 19.2-12.8 38.4-25.6 57.6-44.8 51.2-51.2 83.2-121.6 83.2-198.4 0-76.8-32-147.2-83.2-198.4C659.2 44.8 588.8 19.2 512 19.2c-76.8 0-147.2 32-198.4 83.2-51.2 51.2-83.2 121.6-83.2 192 0 76.8 32 147.2 83.2 198.4 19.2 19.2 38.4 32 57.6 44.8l-38.4 19.2c-51.2 19.2-102.4 51.2-147.2 96-44.8 44.8-76.8 89.6-96 147.2C64 857.6 51.2 915.2 51.2 979.2c0 19.2 12.8 32 32 32h179.2c19.2 0 32-12.8 32-32s-19.2-32-32-32zM288 294.4c0-121.6 96-224 224-224 121.6 0 224 96 224 224 0 121.6-96 224-224 224-121.6 0-224-96-224-224zM934.4 800c-19.2-51.2-51.2-96-83.2-134.4L806.4 704c57.6 64 96 147.2 102.4 243.2H761.6c-19.2 0-32 12.8-32 32s12.8 32 32 32h179.2c19.2 0 32-12.8 32-32 0-64-12.8-121.6-38.4-179.2zM832 550.4c-12.8-12.8-32-12.8-38.4 0L512 832 390.4 710.4c-12.8-12.8-32-12.8-38.4 0-12.8 12.8-12.8 32 0 38.4L492.8 896c6.4 0 12.8 6.4 19.2 6.4 6.4 0 12.8 0 19.2-6.4L832 595.2c12.8-12.8 12.8-32 0-44.8z"/></svg>