<svg class="icon" width="200" height="200" viewBox="0 0 1024 1024" xmlns="http://www.w3.org/2000/svg"><path d="M512.035 1024c101.957-34.507 197.45-100.585 266.64-196.594 54.523-75.554 98.218-169.564 129.807-279.707 53.24-185.572 53.925-350.894 53.925-357.855.106-15.792-11.115-28.894-26.08-30.447-2.356-.205-241.204-26.286-407.229-153.573a27.81 27.81 0 0 0-34.056 0C329.908 132.38 90.176 159.187 87.808 159.392c-14.965 1.459-26.18 14.654-26.18 30.446 0 6.961.592 172.277 53.931 357.85 31.595 109.925 75.184 204.065 129.807 279.712 69.19 95.91 164.812 162.093 266.67 196.6m391.823-807.25-.106 1.665c-2.848 60.377-13.19 181.213-50.586 311.624-65.644 228.68-180.199 374.156-340.517 432.348l-.591.205-.604-.205C351.641 904.307 237.18 759.353 171.348 531.48c-39.165-135.59-48.617-264.12-50.972-313.165l-.106-1.658 1.477-.21c69.477-10.7 246.524-46.543 389.222-147.96l.885-.733.99.732C655.74 169.904 832.788 205.746 902.27 216.558l1.588.193z"/><path d="m675.693 362.672-210.698 227.69-121.868-106.76a34.689 34.689 0 0 0-22.39-8.204 34.366 34.366 0 0 0-26.244 12.059c-12.305 14.415-10.665 36.335 3.873 48.64l149.642 130.54c6.1 5.162 14.531 8.203 22.975 8.203 1.055 0 2.098 0 3.158-.123a34.513 34.513 0 0 0 23.796-13.348l232.836-256.637a33.933 33.933 0 0 0 6.686-25.542c-1.166-9.147-5.977-17.227-13.243-22.853-15.364-11.713-37.038-8.783-48.523 6.335z"/></svg>